<svg xmlns="http://www.w3.org/2000/svg" xmlns:xlink="http://www.w3.org/1999/xlink" width="512" height="512"><defs><linearGradient x2="1" id="a" gradientUnits="userSpaceOnUse"><stop offset="0" stop-color="#e5f2f2"/><stop offset="1" stop-color="#cff2f2"/></linearGradient><linearGradient id="e" xlink:href="#a" gradientTransform="matrix(0 65 -65 0 457 257.5)"/><linearGradient id="f" xlink:href="#a" gradientTransform="matrix(0 41 -41 0 452.5 226.75)"/><linearGradient id="g" xlink:href="#a" gradientTransform="matrix(0 41 -41 0 464.5 215.75)"/><linearGradient id="h" xlink:href="#a" gradientTransform="rotate(90 136.25 340) scale(41)"/><linearGradient id="i" xlink:href="#a" gradientTransform="matrix(0 41 -41 0 542 227.25)"/><linearGradient id="j" xlink:href="#a" gradientTransform="matrix(0 41 -41 0 554 216.25)"/><linearGradient id="k" xlink:href="#a" gradientTransform="rotate(90 180.75 385) scale(41)"/><linearGradient gradientUnits="userSpaceOnUse" y2="322.567" x2="195.579" y1="322.567" x1="114.154" id="d" xlink:href="#b" gradientTransform="matrix(1.2527 0 0 .79828 263 157.596)"/><linearGradient x2="1" id="b" gradientUnits="userSpaceOnUse"><stop offset="0" stop-color="#e5f2f2"/><stop offset="1" stop-color="#cff2f2"/></linearGradient><linearGradient gradientUnits="userSpaceOnUse" y2="254.132" x2="426.72" y1="254.132" x1="380.769" id="l" xlink:href="#c" gradientTransform="scale(1.12076 .89225)"/><linearGradient x2="1" id="c" gradientUnits="userSpaceOnUse"><stop offset="0" stop-color="#e5f2f2"/><stop offset="1" stop-color="#cff2f2"/></linearGradient><linearGradient id="m" xlink:href="#c" gradientTransform="matrix(0 41 -41 0 464.5 215.75)"/><linearGradient id="n" xlink:href="#c" gradientTransform="rotate(90 136.25 340) scale(41)"/><marker orient="auto" overflow="visible" id="o" viewBox="-1 -4 10 8" markerWidth="10" markerHeight="8" color="#000"><path d="M8 0L0-3v6z" fill="currentColor" stroke="currentColor"/></marker><marker orient="auto" overflow="visible" id="p" viewBox="-1 -4 10 8" markerWidth="10" markerHeight="8" color="#000"><path d="M8 0L0-3v6z" fill="currentColor" stroke="currentColor"/></marker><marker orient="auto" overflow="visible" id="q" viewBox="-1 -4 10 8" markerWidth="10" markerHeight="8" color="#000"><path d="M8 0L0-3v6z" fill="currentColor" stroke="currentColor"/></marker></defs><g transform="translate(0 -243.4)" fill="none"><title>Canvas 1</title><title>Layer 1</title><path d="M508 434.33c0-6.158-1.295-6.92-10.758-13.013l-.1-.063c-9.512-6.158-9.61-6.158-19.374-6.158H406v65h102V434.33z" fill="url(#d)" transform="translate(-446.31 100.538) scale(1.10167)"/><path d="M113.338 579.026c0-6.784-1.427-7.623-11.85-14.336l-.112-.07c-10.48-6.783-10.588-6.783-21.343-6.783H.968v71.61h112.37v-50.42zm0-.35c0-6.434-.11-6.434-22.55-6.434 0-14.335 0-14.405-10.097-14.405" stroke="#000" stroke-linecap="round" stroke-linejoin="round" stroke-width="1.10167"/><text x="404.115" y="439.096" font-size="12" fill="#000" transform="translate(-446.31 100.538) scale(1.10167)"><tspan textLength="82.482" y="453.096" x="408.874" font-weight="500" font-size="14" font-family="Helvetica">update.webapp</tspan></text><path d="M508 276.733c0-6.157-1.295-6.92-10.758-13.013l-.1-.063c-9.512-6.157-9.61-6.157-19.374-6.157H406v65h102v-45.767z" fill="url(#e)" transform="translate(-446.726 87.752) scale(1.10167)"/><path d="M112.922 392.62c0-6.782-1.427-7.622-11.85-14.335l-.112-.07c-10.48-6.783-10.588-6.783-21.343-6.783H.552v71.61h112.37v-50.42zm0-.348c0-6.434-.11-6.434-22.55-6.434 0-14.336 0-14.406-10.097-14.406" stroke="#000" stroke-linecap="round" stroke-linejoin="round" stroke-width="1.10167"/><text y="281.5" x="410.977" fill="#000" transform="translate(-446.726 87.752) scale(1.10167)"><tspan textLength="82.482" y="295.5" x="415.736" font-weight="500" font-size="14" font-family="Helvetica">manifest.json</tspan></text><path fill="#fff" d="M295.247 349.66H511.45v131.1H295.246z"/><path d="M295.247 349.66H511.45v131.1H295.246z" stroke="#000" stroke-linecap="round" stroke-linejoin="round" stroke-dasharray="1, 4" stroke-width="1.10167"/><text x="438.746" y="170.75" fill="#000" transform="translate(-155.335 168.16) scale(1.10167)"><tspan textLength="109.648" y="185.75" x="441.207" font-weight="500" font-size="16" font-family="Helvetica Neue">Injected content</tspan></text><path d="M478.25 238.882c0-3.884-.654-4.365-5.432-8.208l-.05-.04c-4.803-3.884-4.853-3.884-9.782-3.884H426.75v41h51.5v-28.868z" fill="url(#f)" transform="translate(-155.335 168.16) scale(1.10167)"/><path d="M371.54 431.33c0-4.28-.722-4.81-5.985-9.044l-.056-.044c-5.292-4.278-5.347-4.278-10.777-4.278h-39.92v45.168h56.736V431.33zm0-.22c0-4.06-.057-4.06-11.387-4.06 0-9.042 0-9.086-5.098-9.086" stroke="#000" stroke-linecap="round" stroke-linejoin="round" stroke-width="1.10167"/><path d="M490.25 227.882c0-3.884-.654-4.365-5.432-8.208l-.05-.04c-4.803-3.884-4.853-3.884-9.782-3.884H438.75v41h51.5v-28.868z" fill="url(#g)" transform="translate(-155.335 168.16) scale(1.10167)"/><path d="M384.76 419.21c0-4.278-.722-4.808-5.985-9.042l-.056-.044c-5.292-4.28-5.347-4.28-10.777-4.28h-39.92v45.17h56.736V419.21zm0-.22c0-4.058-.057-4.058-11.387-4.058 0-9.042 0-9.087-5.098-9.087" stroke="#000" stroke-linecap="round" stroke-linejoin="round" stroke-width="1.10167"/><path d="M502 215.882c0-3.884-.654-4.365-5.432-8.208l-.05-.04c-4.803-3.884-4.853-3.884-9.782-3.884H450.5v41H502v-28.868z" fill="url(#h)" transform="translate(-155.335 168.16) scale(1.10167)"/><path d="M397.703 405.99c0-4.278-.72-4.808-5.984-9.042l-.056-.044c-5.29-4.28-5.346-4.28-10.777-4.28h-39.92v45.17h56.736V405.99zm0-.22c0-4.058-.055-4.058-11.385-4.058 0-9.042 0-9.087-5.098-9.087" stroke="#000" stroke-linecap="round" stroke-linejoin="round" stroke-width="1.10167"/><text transform="matrix(1.10167 0 0 1.10167 346.474 405.846)" fill="#000"><tspan textLength="20.228" y="14" x="12.581" font-weight="500" font-size="14" font-family="Helvetica">JS</tspan></text><path d="M567.75 239.382c0-3.884-.654-4.365-5.432-8.208l-.05-.04c-4.803-3.884-4.853-3.884-9.782-3.884H516.25v41h51.5v-28.868z" fill="url(#i)" transform="translate(-155.335 168.16) scale(1.10167)"/><path d="M470.138 431.88c0-4.28-.72-4.808-5.984-9.043l-.055-.044c-5.293-4.278-5.348-4.278-10.778-4.278h-39.92v45.168h56.736V431.88zm0-.22c0-4.06-.055-4.06-11.386-4.06 0-9.04 0-9.085-5.097-9.085" stroke="#000" stroke-linecap="round" stroke-linejoin="round" stroke-width="1.10167"/><path d="M579.75 228.382c0-3.884-.654-4.365-5.432-8.208l-.05-.04c-4.803-3.884-4.853-3.884-9.782-3.884H528.25v41h51.5v-28.868z" fill="url(#j)" transform="translate(-155.335 168.16) scale(1.10167)"/><path d="M483.358 419.76c0-4.277-.72-4.807-5.984-9.04l-.055-.045c-5.293-4.28-5.348-4.28-10.778-4.28h-39.92v45.17h56.736V419.76zm0-.22c0-4.057-.055-4.057-11.386-4.057 0-9.043 0-9.087-5.097-9.087" stroke="#000" stroke-linecap="round" stroke-linejoin="round" stroke-width="1.10167"/><path d="M591.5 216.382c0-3.884-.654-4.365-5.432-8.208l-.05-.04c-4.803-3.884-4.853-3.884-9.782-3.884H540v41h51.5v-28.868z" fill="url(#k)" transform="translate(-155.335 168.16) scale(1.10167)"/><path d="M496.303 406.54c0-4.277-.72-4.807-5.984-9.04l-.057-.045c-5.29-4.28-5.346-4.28-10.776-4.28h-39.92v45.17h56.736V406.54zm0-.22c0-4.057-.056-4.057-11.386-4.057 0-9.043 0-9.087-5.098-9.087" stroke="#000" stroke-linecap="round" stroke-linejoin="round" stroke-width="1.10167"/><text transform="matrix(1.10167 0 0 1.10167 445.074 406.397)" fill="#000"><tspan textLength="32.676" y="14" x="6.357" font-weight="500" font-size="14" font-family="Helvetica">CSS</tspan></text><g><path fill="#fff" d="M295.247 518.04H511.45v131.1H295.246z"/><path d="M295.247 518.04H511.45v131.1H295.246z" stroke="#000" stroke-linecap="round" stroke-linejoin="round" stroke-dasharray="1, 4" stroke-width="1.10167"/><text x="483.367" y="170.75" fill="#000" transform="matrix(1.10167 0 0 1.10167 -155.335 336.54)"><tspan textLength="109.648" y="185.75" x="485.828" font-weight="500" font-size="16" font-family="Helvetica Neue">Icons</tspan></text><path d="M478.25 238.882c0-3.884-.654-4.365-5.432-8.208l-.05-.04c-4.803-3.884-4.853-3.884-9.782-3.884H426.75v41h51.5v-28.868z" fill="url(#l)" transform="translate(-108.24 336.54) scale(1.10167)"/><path d="M418.634 599.71c0-4.28-.72-4.81-5.984-9.044l-.056-.044c-5.29-4.278-5.346-4.278-10.776-4.278h-39.92v45.168h56.736V599.71zm0-.22c0-4.06-.056-4.06-11.386-4.06 0-9.042 0-9.086-5.098-9.086" stroke="#000" stroke-linecap="round" stroke-linejoin="round" stroke-width="1.10167"/><path d="M490.25 227.882c0-3.884-.654-4.365-5.432-8.208l-.05-.04c-4.803-3.884-4.853-3.884-9.782-3.884H438.75v41h51.5v-28.868z" fill="url(#m)" transform="translate(-108.24 336.54) scale(1.10167)"/><path d="M431.854 587.59c0-4.278-.72-4.808-5.984-9.042l-.056-.044c-5.29-4.28-5.346-4.28-10.776-4.28h-39.92v45.17h56.736V587.59zm0-.22c0-4.058-.056-4.058-11.386-4.058 0-9.042 0-9.087-5.098-9.087" stroke="#000" stroke-linecap="round" stroke-linejoin="round" stroke-width="1.10167"/><path d="M502 215.882c0-3.884-.654-4.365-5.432-8.208l-.05-.04c-4.803-3.884-4.853-3.884-9.782-3.884H450.5v41H502v-28.868z" fill="url(#n)" transform="translate(-108.24 336.54) scale(1.10167)"/><path d="M444.798 574.37c0-4.278-.72-4.808-5.984-9.042l-.055-.044c-5.292-4.28-5.347-4.28-10.778-4.28h-39.92v45.17h56.736V574.37zm0-.22c0-4.058-.055-4.058-11.385-4.058 0-9.042 0-9.087-5.098-9.087" stroke="#000" stroke-linecap="round" stroke-linejoin="round" stroke-width="1.10167"/><text y="215.149" x="454.62" font-size="12" fill="#000" transform="translate(-108.24 336.54) scale(1.10167)"><tspan textLength="36.572" y="229.149" x="459.029" font-weight="500" font-size="14" font-family="Helvetica">icons</tspan></text></g><path d="M112.943 412.715L281.267 568.76" stroke="#000" stroke-width="1.958" marker-end="url(#o)"/><path d="M113.27 409.547l164.378-1.895" stroke="#000" stroke-width="1.958" marker-end="url(#p)"/><path d="M113.248 596.964l164.377-1.894" stroke="#000" stroke-width="1.958" marker-end="url(#q)"/></g></svg>